%TF.GenerationSoftware,KiCad,Pcbnew,6.0.2-378541a8eb~116~ubuntu21.10.1*%
%TF.CreationDate,2022-02-13T12:51:08+01:00*%
%TF.ProjectId,QL_IC24,514c5f49-4332-4342-9e6b-696361645f70,00*%
%TF.SameCoordinates,Original*%
%TF.FileFunction,Legend,Bot*%
%TF.FilePolarity,Positive*%
%FSLAX46Y46*%
G04 Gerber Fmt 4.6, Leading zero omitted, Abs format (unit mm)*
G04 Created by KiCad (PCBNEW 6.0.2-378541a8eb~116~ubuntu21.10.1) date 2022-02-13 12:51:08*
%MOMM*%
%LPD*%
G01*
G04 APERTURE LIST*
%ADD10C,0.150000*%
%ADD11C,0.312500*%
G04 APERTURE END LIST*
D10*
X125758333Y-70557619D02*
X125710714Y-70510000D01*
X125567857Y-70414761D01*
X125472619Y-70367142D01*
X125329761Y-70319523D01*
X125091666Y-70271904D01*
X124901190Y-70271904D01*
X124663095Y-70319523D01*
X124520238Y-70367142D01*
X124425000Y-70414761D01*
X124282142Y-70510000D01*
X124234523Y-70557619D01*
X125282142Y-71510000D02*
X125329761Y-71462380D01*
X125377380Y-71319523D01*
X125377380Y-71224285D01*
X125329761Y-71081428D01*
X125234523Y-70986190D01*
X125139285Y-70938571D01*
X124948809Y-70890952D01*
X124805952Y-70890952D01*
X124615476Y-70938571D01*
X124520238Y-70986190D01*
X124425000Y-71081428D01*
X124377380Y-71224285D01*
X124377380Y-71319523D01*
X124425000Y-71462380D01*
X124472619Y-71510000D01*
X125758333Y-71843333D02*
X125710714Y-71890952D01*
X125567857Y-71986190D01*
X125472619Y-72033809D01*
X125329761Y-72081428D01*
X125091666Y-72129047D01*
X124901190Y-72129047D01*
X124663095Y-72081428D01*
X124520238Y-72033809D01*
X124425000Y-71986190D01*
X124282142Y-71890952D01*
X124234523Y-71843333D01*
X124472619Y-73319523D02*
X124425000Y-73367142D01*
X124377380Y-73462380D01*
X124377380Y-73700476D01*
X124425000Y-73795714D01*
X124472619Y-73843333D01*
X124567857Y-73890952D01*
X124663095Y-73890952D01*
X124805952Y-73843333D01*
X125377380Y-73271904D01*
X125377380Y-73890952D01*
X124377380Y-74510000D02*
X124377380Y-74605238D01*
X124425000Y-74700476D01*
X124472619Y-74748095D01*
X124567857Y-74795714D01*
X124758333Y-74843333D01*
X124996428Y-74843333D01*
X125186904Y-74795714D01*
X125282142Y-74748095D01*
X125329761Y-74700476D01*
X125377380Y-74605238D01*
X125377380Y-74510000D01*
X125329761Y-74414761D01*
X125282142Y-74367142D01*
X125186904Y-74319523D01*
X124996428Y-74271904D01*
X124758333Y-74271904D01*
X124567857Y-74319523D01*
X124472619Y-74367142D01*
X124425000Y-74414761D01*
X124377380Y-74510000D01*
X124472619Y-75224285D02*
X124425000Y-75271904D01*
X124377380Y-75367142D01*
X124377380Y-75605238D01*
X124425000Y-75700476D01*
X124472619Y-75748095D01*
X124567857Y-75795714D01*
X124663095Y-75795714D01*
X124805952Y-75748095D01*
X125377380Y-75176666D01*
X125377380Y-75795714D01*
X124472619Y-76176666D02*
X124425000Y-76224285D01*
X124377380Y-76319523D01*
X124377380Y-76557619D01*
X124425000Y-76652857D01*
X124472619Y-76700476D01*
X124567857Y-76748095D01*
X124663095Y-76748095D01*
X124805952Y-76700476D01*
X125377380Y-76129047D01*
X125377380Y-76748095D01*
X125091666Y-77890952D02*
X125091666Y-78367142D01*
X125377380Y-77795714D02*
X124377380Y-78129047D01*
X125377380Y-78462380D01*
X125377380Y-78938571D02*
X125329761Y-78843333D01*
X125234523Y-78795714D01*
X124377380Y-78795714D01*
X124710714Y-79224285D02*
X125377380Y-79462380D01*
X124710714Y-79700476D01*
X125377380Y-80510000D02*
X124853571Y-80510000D01*
X124758333Y-80462380D01*
X124710714Y-80367142D01*
X124710714Y-80176666D01*
X124758333Y-80081428D01*
X125329761Y-80510000D02*
X125377380Y-80414761D01*
X125377380Y-80176666D01*
X125329761Y-80081428D01*
X125234523Y-80033809D01*
X125139285Y-80033809D01*
X125044047Y-80081428D01*
X124996428Y-80176666D01*
X124996428Y-80414761D01*
X124948809Y-80510000D01*
X125377380Y-80986190D02*
X124710714Y-80986190D01*
X124901190Y-80986190D02*
X124805952Y-81033809D01*
X124758333Y-81081428D01*
X124710714Y-81176666D01*
X124710714Y-81271904D01*
X125377380Y-81748095D02*
X125329761Y-81652857D01*
X125282142Y-81605238D01*
X125186904Y-81557619D01*
X124901190Y-81557619D01*
X124805952Y-81605238D01*
X124758333Y-81652857D01*
X124710714Y-81748095D01*
X124710714Y-81890952D01*
X124758333Y-81986190D01*
X124805952Y-82033809D01*
X124901190Y-82081428D01*
X125186904Y-82081428D01*
X125282142Y-82033809D01*
X125329761Y-81986190D01*
X125377380Y-81890952D01*
X125377380Y-81748095D01*
X125091666Y-83224285D02*
X125091666Y-83700476D01*
X125377380Y-83129047D02*
X124377380Y-83462380D01*
X125377380Y-83795714D01*
X125377380Y-84271904D02*
X125329761Y-84176666D01*
X125234523Y-84129047D01*
X124377380Y-84129047D01*
X125329761Y-85033809D02*
X125377380Y-84938571D01*
X125377380Y-84748095D01*
X125329761Y-84652857D01*
X125234523Y-84605238D01*
X124853571Y-84605238D01*
X124758333Y-84652857D01*
X124710714Y-84748095D01*
X124710714Y-84938571D01*
X124758333Y-85033809D01*
X124853571Y-85081428D01*
X124948809Y-85081428D01*
X125044047Y-84605238D01*
X125377380Y-85938571D02*
X124853571Y-85938571D01*
X124758333Y-85890952D01*
X124710714Y-85795714D01*
X124710714Y-85605238D01*
X124758333Y-85510000D01*
X125329761Y-85938571D02*
X125377380Y-85843333D01*
X125377380Y-85605238D01*
X125329761Y-85510000D01*
X125234523Y-85462380D01*
X125139285Y-85462380D01*
X125044047Y-85510000D01*
X124996428Y-85605238D01*
X124996428Y-85843333D01*
X124948809Y-85938571D01*
X124853571Y-87510000D02*
X124853571Y-87176666D01*
X125377380Y-87176666D02*
X124377380Y-87176666D01*
X124377380Y-87652857D01*
X125377380Y-88462380D02*
X124377380Y-88462380D01*
X125329761Y-88462380D02*
X125377380Y-88367142D01*
X125377380Y-88176666D01*
X125329761Y-88081428D01*
X125282142Y-88033809D01*
X125186904Y-87986190D01*
X124901190Y-87986190D01*
X124805952Y-88033809D01*
X124758333Y-88081428D01*
X124710714Y-88176666D01*
X124710714Y-88367142D01*
X124758333Y-88462380D01*
X124710714Y-88843333D02*
X124710714Y-89367142D01*
X125377380Y-88843333D01*
X125377380Y-89367142D01*
X125282142Y-89748095D02*
X125329761Y-89795714D01*
X125377380Y-89748095D01*
X125329761Y-89700476D01*
X125282142Y-89748095D01*
X125377380Y-89748095D01*
X126987380Y-69414761D02*
X125987380Y-69414761D01*
X125987380Y-69652857D01*
X126035000Y-69795714D01*
X126130238Y-69890952D01*
X126225476Y-69938571D01*
X126415952Y-69986190D01*
X126558809Y-69986190D01*
X126749285Y-69938571D01*
X126844523Y-69890952D01*
X126939761Y-69795714D01*
X126987380Y-69652857D01*
X126987380Y-69414761D01*
X126987380Y-70414761D02*
X126320714Y-70414761D01*
X125987380Y-70414761D02*
X126035000Y-70367142D01*
X126082619Y-70414761D01*
X126035000Y-70462380D01*
X125987380Y-70414761D01*
X126082619Y-70414761D01*
X126939761Y-70843333D02*
X126987380Y-70938571D01*
X126987380Y-71129047D01*
X126939761Y-71224285D01*
X126844523Y-71271904D01*
X126796904Y-71271904D01*
X126701666Y-71224285D01*
X126654047Y-71129047D01*
X126654047Y-70986190D01*
X126606428Y-70890952D01*
X126511190Y-70843333D01*
X126463571Y-70843333D01*
X126368333Y-70890952D01*
X126320714Y-70986190D01*
X126320714Y-71129047D01*
X126368333Y-71224285D01*
X126320714Y-71557619D02*
X126320714Y-71938571D01*
X125987380Y-71700476D02*
X126844523Y-71700476D01*
X126939761Y-71748095D01*
X126987380Y-71843333D01*
X126987380Y-71938571D01*
X126987380Y-72271904D02*
X126320714Y-72271904D01*
X126511190Y-72271904D02*
X126415952Y-72319523D01*
X126368333Y-72367142D01*
X126320714Y-72462380D01*
X126320714Y-72557619D01*
X126987380Y-72890952D02*
X126320714Y-72890952D01*
X125987380Y-72890952D02*
X126035000Y-72843333D01*
X126082619Y-72890952D01*
X126035000Y-72938571D01*
X125987380Y-72890952D01*
X126082619Y-72890952D01*
X126987380Y-73367142D02*
X125987380Y-73367142D01*
X126368333Y-73367142D02*
X126320714Y-73462380D01*
X126320714Y-73652857D01*
X126368333Y-73748095D01*
X126415952Y-73795714D01*
X126511190Y-73843333D01*
X126796904Y-73843333D01*
X126892142Y-73795714D01*
X126939761Y-73748095D01*
X126987380Y-73652857D01*
X126987380Y-73462380D01*
X126939761Y-73367142D01*
X126320714Y-74700476D02*
X126987380Y-74700476D01*
X126320714Y-74271904D02*
X126844523Y-74271904D01*
X126939761Y-74319523D01*
X126987380Y-74414761D01*
X126987380Y-74557619D01*
X126939761Y-74652857D01*
X126892142Y-74700476D01*
X126320714Y-75033809D02*
X126320714Y-75414761D01*
X125987380Y-75176666D02*
X126844523Y-75176666D01*
X126939761Y-75224285D01*
X126987380Y-75319523D01*
X126987380Y-75414761D01*
X126939761Y-76129047D02*
X126987380Y-76033809D01*
X126987380Y-75843333D01*
X126939761Y-75748095D01*
X126844523Y-75700476D01*
X126463571Y-75700476D01*
X126368333Y-75748095D01*
X126320714Y-75843333D01*
X126320714Y-76033809D01*
X126368333Y-76129047D01*
X126463571Y-76176666D01*
X126558809Y-76176666D01*
X126654047Y-75700476D01*
X126987380Y-77033809D02*
X125987380Y-77033809D01*
X126939761Y-77033809D02*
X126987380Y-76938571D01*
X126987380Y-76748095D01*
X126939761Y-76652857D01*
X126892142Y-76605238D01*
X126796904Y-76557619D01*
X126511190Y-76557619D01*
X126415952Y-76605238D01*
X126368333Y-76652857D01*
X126320714Y-76748095D01*
X126320714Y-76938571D01*
X126368333Y-77033809D01*
X126320714Y-78700476D02*
X126987380Y-78700476D01*
X126320714Y-78271904D02*
X126844523Y-78271904D01*
X126939761Y-78319523D01*
X126987380Y-78414761D01*
X126987380Y-78557619D01*
X126939761Y-78652857D01*
X126892142Y-78700476D01*
X126320714Y-79176666D02*
X126987380Y-79176666D01*
X126415952Y-79176666D02*
X126368333Y-79224285D01*
X126320714Y-79319523D01*
X126320714Y-79462380D01*
X126368333Y-79557619D01*
X126463571Y-79605238D01*
X126987380Y-79605238D01*
X126987380Y-80510000D02*
X125987380Y-80510000D01*
X126939761Y-80510000D02*
X126987380Y-80414761D01*
X126987380Y-80224285D01*
X126939761Y-80129047D01*
X126892142Y-80081428D01*
X126796904Y-80033809D01*
X126511190Y-80033809D01*
X126415952Y-80081428D01*
X126368333Y-80129047D01*
X126320714Y-80224285D01*
X126320714Y-80414761D01*
X126368333Y-80510000D01*
X126939761Y-81367142D02*
X126987380Y-81271904D01*
X126987380Y-81081428D01*
X126939761Y-80986190D01*
X126844523Y-80938571D01*
X126463571Y-80938571D01*
X126368333Y-80986190D01*
X126320714Y-81081428D01*
X126320714Y-81271904D01*
X126368333Y-81367142D01*
X126463571Y-81414761D01*
X126558809Y-81414761D01*
X126654047Y-80938571D01*
X126987380Y-81843333D02*
X126320714Y-81843333D01*
X126511190Y-81843333D02*
X126415952Y-81890952D01*
X126368333Y-81938571D01*
X126320714Y-82033809D01*
X126320714Y-82129047D01*
X126892142Y-83795714D02*
X126939761Y-83748095D01*
X126987380Y-83605238D01*
X126987380Y-83510000D01*
X126939761Y-83367142D01*
X126844523Y-83271904D01*
X126749285Y-83224285D01*
X126558809Y-83176666D01*
X126415952Y-83176666D01*
X126225476Y-83224285D01*
X126130238Y-83271904D01*
X126035000Y-83367142D01*
X125987380Y-83510000D01*
X125987380Y-83605238D01*
X126035000Y-83748095D01*
X126082619Y-83795714D01*
X126892142Y-84795714D02*
X126939761Y-84748095D01*
X126987380Y-84605238D01*
X126987380Y-84510000D01*
X126939761Y-84367142D01*
X126844523Y-84271904D01*
X126749285Y-84224285D01*
X126558809Y-84176666D01*
X126415952Y-84176666D01*
X126225476Y-84224285D01*
X126130238Y-84271904D01*
X126035000Y-84367142D01*
X125987380Y-84510000D01*
X125987380Y-84605238D01*
X126035000Y-84748095D01*
X126082619Y-84795714D01*
X126987380Y-85986190D02*
X125987380Y-85986190D01*
X126987380Y-86557619D01*
X125987380Y-86557619D01*
X126892142Y-87605238D02*
X126939761Y-87557619D01*
X126987380Y-87414761D01*
X126987380Y-87319523D01*
X126939761Y-87176666D01*
X126844523Y-87081428D01*
X126749285Y-87033809D01*
X126558809Y-86986190D01*
X126415952Y-86986190D01*
X126225476Y-87033809D01*
X126130238Y-87081428D01*
X126035000Y-87176666D01*
X125987380Y-87319523D01*
X125987380Y-87414761D01*
X126035000Y-87557619D01*
X126082619Y-87605238D01*
X126606428Y-88033809D02*
X126606428Y-88795714D01*
X126939761Y-89224285D02*
X126987380Y-89367142D01*
X126987380Y-89605238D01*
X126939761Y-89700476D01*
X126892142Y-89748095D01*
X126796904Y-89795714D01*
X126701666Y-89795714D01*
X126606428Y-89748095D01*
X126558809Y-89700476D01*
X126511190Y-89605238D01*
X126463571Y-89414761D01*
X126415952Y-89319523D01*
X126368333Y-89271904D01*
X126273095Y-89224285D01*
X126177857Y-89224285D01*
X126082619Y-89271904D01*
X126035000Y-89319523D01*
X125987380Y-89414761D01*
X125987380Y-89652857D01*
X126035000Y-89795714D01*
X126701666Y-90176666D02*
X126701666Y-90652857D01*
X126987380Y-90081428D02*
X125987380Y-90414761D01*
X126987380Y-90748095D01*
D11*
X118615952Y-69211000D02*
X118675476Y-69389571D01*
X118675476Y-69687190D01*
X118615952Y-69806238D01*
X118556428Y-69865761D01*
X118437380Y-69925285D01*
X118318333Y-69925285D01*
X118199285Y-69865761D01*
X118139761Y-69806238D01*
X118080238Y-69687190D01*
X118020714Y-69449095D01*
X117961190Y-69330047D01*
X117901666Y-69270523D01*
X117782619Y-69211000D01*
X117663571Y-69211000D01*
X117544523Y-69270523D01*
X117485000Y-69330047D01*
X117425476Y-69449095D01*
X117425476Y-69746714D01*
X117485000Y-69925285D01*
X118675476Y-70461000D02*
X117425476Y-70461000D01*
X118675476Y-71056238D02*
X117425476Y-71056238D01*
X118675476Y-71770523D01*
X117425476Y-71770523D01*
X118556428Y-73080047D02*
X118615952Y-73020523D01*
X118675476Y-72841952D01*
X118675476Y-72722904D01*
X118615952Y-72544333D01*
X118496904Y-72425285D01*
X118377857Y-72365761D01*
X118139761Y-72306238D01*
X117961190Y-72306238D01*
X117723095Y-72365761D01*
X117604047Y-72425285D01*
X117485000Y-72544333D01*
X117425476Y-72722904D01*
X117425476Y-72841952D01*
X117485000Y-73020523D01*
X117544523Y-73080047D01*
X118675476Y-74211000D02*
X118675476Y-73615761D01*
X117425476Y-73615761D01*
X118318333Y-74568142D02*
X118318333Y-75163380D01*
X118675476Y-74449095D02*
X117425476Y-74865761D01*
X118675476Y-75282428D01*
X118675476Y-75699095D02*
X117425476Y-75699095D01*
X118675476Y-77008619D02*
X118080238Y-76591952D01*
X118675476Y-76294333D02*
X117425476Y-76294333D01*
X117425476Y-76770523D01*
X117485000Y-76889571D01*
X117544523Y-76949095D01*
X117663571Y-77008619D01*
X117842142Y-77008619D01*
X117961190Y-76949095D01*
X118020714Y-76889571D01*
X118080238Y-76770523D01*
X118080238Y-76294333D01*
X118794523Y-79330047D02*
X118735000Y-79211000D01*
X118615952Y-79091952D01*
X118437380Y-78913380D01*
X118377857Y-78794333D01*
X118377857Y-78675285D01*
X118675476Y-78734809D02*
X118615952Y-78615761D01*
X118496904Y-78496714D01*
X118258809Y-78437190D01*
X117842142Y-78437190D01*
X117604047Y-78496714D01*
X117485000Y-78615761D01*
X117425476Y-78734809D01*
X117425476Y-78972904D01*
X117485000Y-79091952D01*
X117604047Y-79211000D01*
X117842142Y-79270523D01*
X118258809Y-79270523D01*
X118496904Y-79211000D01*
X118615952Y-79091952D01*
X118675476Y-78972904D01*
X118675476Y-78734809D01*
X118675476Y-80401476D02*
X118675476Y-79806238D01*
X117425476Y-79806238D01*
X118675476Y-81770523D02*
X117842142Y-81770523D01*
X117425476Y-81770523D02*
X117485000Y-81711000D01*
X117544523Y-81770523D01*
X117485000Y-81830047D01*
X117425476Y-81770523D01*
X117544523Y-81770523D01*
X117961190Y-82544333D02*
X117901666Y-82425285D01*
X117842142Y-82365761D01*
X117723095Y-82306238D01*
X117663571Y-82306238D01*
X117544523Y-82365761D01*
X117485000Y-82425285D01*
X117425476Y-82544333D01*
X117425476Y-82782428D01*
X117485000Y-82901476D01*
X117544523Y-82961000D01*
X117663571Y-83020523D01*
X117723095Y-83020523D01*
X117842142Y-82961000D01*
X117901666Y-82901476D01*
X117961190Y-82782428D01*
X117961190Y-82544333D01*
X118020714Y-82425285D01*
X118080238Y-82365761D01*
X118199285Y-82306238D01*
X118437380Y-82306238D01*
X118556428Y-82365761D01*
X118615952Y-82425285D01*
X118675476Y-82544333D01*
X118675476Y-82782428D01*
X118615952Y-82901476D01*
X118556428Y-82961000D01*
X118437380Y-83020523D01*
X118199285Y-83020523D01*
X118080238Y-82961000D01*
X118020714Y-82901476D01*
X117961190Y-82782428D01*
X117425476Y-83794333D02*
X117425476Y-83913380D01*
X117485000Y-84032428D01*
X117544523Y-84091952D01*
X117663571Y-84151476D01*
X117901666Y-84211000D01*
X118199285Y-84211000D01*
X118437380Y-84151476D01*
X118556428Y-84091952D01*
X118615952Y-84032428D01*
X118675476Y-83913380D01*
X118675476Y-83794333D01*
X118615952Y-83675285D01*
X118556428Y-83615761D01*
X118437380Y-83556238D01*
X118199285Y-83496714D01*
X117901666Y-83496714D01*
X117663571Y-83556238D01*
X117544523Y-83615761D01*
X117485000Y-83675285D01*
X117425476Y-83794333D01*
X117842142Y-85282428D02*
X118675476Y-85282428D01*
X117365952Y-84984809D02*
X118258809Y-84687190D01*
X118258809Y-85461000D01*
X118675476Y-85996714D02*
X118675476Y-86234809D01*
X118615952Y-86353857D01*
X118556428Y-86413380D01*
X118377857Y-86532428D01*
X118139761Y-86591952D01*
X117663571Y-86591952D01*
X117544523Y-86532428D01*
X117485000Y-86472904D01*
X117425476Y-86353857D01*
X117425476Y-86115761D01*
X117485000Y-85996714D01*
X117544523Y-85937190D01*
X117663571Y-85877666D01*
X117961190Y-85877666D01*
X118080238Y-85937190D01*
X118139761Y-85996714D01*
X118199285Y-86115761D01*
X118199285Y-86353857D01*
X118139761Y-86472904D01*
X118080238Y-86532428D01*
X117961190Y-86591952D01*
X118675476Y-88794333D02*
X118080238Y-88377666D01*
X118675476Y-88080047D02*
X117425476Y-88080047D01*
X117425476Y-88556238D01*
X117485000Y-88675285D01*
X117544523Y-88734809D01*
X117663571Y-88794333D01*
X117842142Y-88794333D01*
X117961190Y-88734809D01*
X118020714Y-88675285D01*
X118080238Y-88556238D01*
X118080238Y-88080047D01*
X118020714Y-89330047D02*
X118020714Y-89746714D01*
X118675476Y-89925285D02*
X118675476Y-89330047D01*
X117425476Y-89330047D01*
X117425476Y-89925285D01*
X118675476Y-90460999D02*
X117425476Y-90460999D01*
X117425476Y-90937190D01*
X117485000Y-91056238D01*
X117544523Y-91115761D01*
X117663571Y-91175285D01*
X117842142Y-91175285D01*
X117961190Y-91115761D01*
X118020714Y-91056238D01*
X118080238Y-90937190D01*
X118080238Y-90460999D01*
X118675476Y-92306238D02*
X118675476Y-91711000D01*
X117425476Y-91711000D01*
X118318333Y-92663380D02*
X118318333Y-93258619D01*
X118675476Y-92544333D02*
X117425476Y-92960999D01*
X118675476Y-93377666D01*
X118556428Y-94508619D02*
X118615952Y-94449095D01*
X118675476Y-94270523D01*
X118675476Y-94151476D01*
X118615952Y-93972904D01*
X118496904Y-93853857D01*
X118377857Y-93794333D01*
X118139761Y-93734809D01*
X117961190Y-93734809D01*
X117723095Y-93794333D01*
X117604047Y-93853857D01*
X117485000Y-93972904D01*
X117425476Y-94151476D01*
X117425476Y-94270523D01*
X117485000Y-94449095D01*
X117544523Y-94508619D01*
X118020714Y-95044333D02*
X118020714Y-95461000D01*
X118675476Y-95639571D02*
X118675476Y-95044333D01*
X117425476Y-95044333D01*
X117425476Y-95639571D01*
X118675476Y-96175285D02*
X117425476Y-96175285D01*
X118318333Y-96591952D01*
X117425476Y-97008619D01*
X118675476Y-97008619D01*
X118020714Y-97603857D02*
X118020714Y-98020523D01*
X118675476Y-98199095D02*
X118675476Y-97603857D01*
X117425476Y-97603857D01*
X117425476Y-98199095D01*
X118675476Y-98734809D02*
X117425476Y-98734809D01*
X118675476Y-99449095D01*
X117425476Y-99449095D01*
X117425476Y-99865761D02*
X117425476Y-100580047D01*
X118675476Y-100222904D02*
X117425476Y-100222904D01*
D10*
X126539047Y-116292380D02*
X126539047Y-117006666D01*
X126586666Y-117149523D01*
X126681904Y-117244761D01*
X126824761Y-117292380D01*
X126920000Y-117292380D01*
X125586666Y-117292380D02*
X126062857Y-117292380D01*
X126062857Y-116292380D01*
X124681904Y-117197142D02*
X124729523Y-117244761D01*
X124872380Y-117292380D01*
X124967619Y-117292380D01*
X125110476Y-117244761D01*
X125205714Y-117149523D01*
X125253333Y-117054285D01*
X125300952Y-116863809D01*
X125300952Y-116720952D01*
X125253333Y-116530476D01*
X125205714Y-116435238D01*
X125110476Y-116340000D01*
X124967619Y-116292380D01*
X124872380Y-116292380D01*
X124729523Y-116340000D01*
X124681904Y-116387619D01*
X123967619Y-116292380D02*
X123967619Y-117006666D01*
X124015238Y-117149523D01*
X124110476Y-117244761D01*
X124253333Y-117292380D01*
X124348571Y-117292380D01*
X123015238Y-117292380D02*
X123491428Y-117292380D01*
X123491428Y-116292380D01*
X122110476Y-117197142D02*
X122158095Y-117244761D01*
X122300952Y-117292380D01*
X122396190Y-117292380D01*
X122539047Y-117244761D01*
X122634285Y-117149523D01*
X122681904Y-117054285D01*
X122729523Y-116863809D01*
X122729523Y-116720952D01*
X122681904Y-116530476D01*
X122634285Y-116435238D01*
X122539047Y-116340000D01*
X122396190Y-116292380D01*
X122300952Y-116292380D01*
X122158095Y-116340000D01*
X122110476Y-116387619D01*
X121396190Y-116292380D02*
X121396190Y-117006666D01*
X121443809Y-117149523D01*
X121539047Y-117244761D01*
X121681904Y-117292380D01*
X121777142Y-117292380D01*
X120443809Y-117292380D02*
X120920000Y-117292380D01*
X120920000Y-116292380D01*
X119539047Y-117197142D02*
X119586666Y-117244761D01*
X119729523Y-117292380D01*
X119824761Y-117292380D01*
X119967619Y-117244761D01*
X120062857Y-117149523D01*
X120110476Y-117054285D01*
X120158095Y-116863809D01*
X120158095Y-116720952D01*
X120110476Y-116530476D01*
X120062857Y-116435238D01*
X119967619Y-116340000D01*
X119824761Y-116292380D01*
X119729523Y-116292380D01*
X119586666Y-116340000D01*
X119539047Y-116387619D01*
X118824761Y-116292380D02*
X118824761Y-117006666D01*
X118872380Y-117149523D01*
X118967619Y-117244761D01*
X119110476Y-117292380D01*
X119205714Y-117292380D01*
X117872380Y-117292380D02*
X118348571Y-117292380D01*
X118348571Y-116292380D01*
X116967619Y-117197142D02*
X117015238Y-117244761D01*
X117158095Y-117292380D01*
X117253333Y-117292380D01*
X117396190Y-117244761D01*
X117491428Y-117149523D01*
X117539047Y-117054285D01*
X117586666Y-116863809D01*
X117586666Y-116720952D01*
X117539047Y-116530476D01*
X117491428Y-116435238D01*
X117396190Y-116340000D01*
X117253333Y-116292380D01*
X117158095Y-116292380D01*
X117015238Y-116340000D01*
X116967619Y-116387619D01*
M02*
