M48
; DRILL file {KiCad 6.0.2-378541a8eb~116~ubuntu21.10.1} date dom 13 feb 2022 12:51:05
; FORMAT={-:-/ absolute / inch / decimal}
; #@! TF.CreationDate,2022-02-13T12:51:05+01:00
; #@! TF.GenerationSoftware,Kicad,Pcbnew,6.0.2-378541a8eb~116~ubuntu21.10.1
; #@! TF.FileFunction,Plated,1,2,PTH
FMAT,2
INCH
; #@! TA.AperFunction,Plated,PTH,ViaDrill
T1C0.0157
; #@! TA.AperFunction,Plated,PTH,ComponentDrill
T2C0.0315
; #@! TA.AperFunction,Plated,PTH,ComponentDrill
T3C0.0394
%
G90
G05
T1
X4.5496Y-3.8713
X4.5762Y-4.0159
X4.5821Y-4.0558
X4.6034Y-3.5745
X4.64Y-3.53
X4.69Y-3.622
X4.7186Y-3.495
X4.7261Y-3.7445
X4.75Y-3.2833
X4.75Y-3.6285
X4.7519Y-3.9653
X4.7576Y-3.7093
X4.7982Y-4.1169
X4.8253Y-3.6255
X4.8317Y-3.0321
X4.8403Y-3.7083
X4.8505Y-3.784
X4.8561Y-3.6521
X4.8807Y-3.7512
X4.9094Y-3.791
X4.9104Y-3.8303
X4.98Y-3.8662
T2
X4.5Y-2.7
X4.5Y-2.8
X4.5Y-2.9
X4.5Y-3.0
X4.5Y-3.1
X4.5Y-3.2
X4.5Y-3.3
X4.5Y-3.4
X4.5Y-3.5
X4.5Y-3.6
X4.5Y-3.7
X4.5Y-3.8
X4.5Y-3.9
X4.5Y-4.0
X4.5Y-4.1
X4.5Y-4.2
X4.5Y-4.3
X4.5Y-4.4
X4.5Y-4.5
X4.5Y-4.6
X5.1Y-2.7
X5.1Y-2.8
X5.1Y-2.9
X5.1Y-3.0
X5.1Y-3.1
X5.1Y-3.2
X5.1Y-3.3
X5.1Y-3.4
X5.1Y-3.5
X5.1Y-3.6
X5.1Y-3.7
X5.1Y-3.8
X5.1Y-3.9
X5.1Y-4.0
X5.1Y-4.1
X5.1Y-4.2
X5.1Y-4.3
X5.1Y-4.4
X5.1Y-4.5
X5.1Y-4.6
T3
X4.75Y-4.3
X4.75Y-4.4
X4.75Y-4.5
X4.85Y-4.3
X4.85Y-4.4
X4.85Y-4.5
T0
M30
