%TF.GenerationSoftware,KiCad,Pcbnew,6.0.2-378541a8eb~116~ubuntu21.10.1*%
%TF.CreationDate,2022-02-13T12:51:07+01:00*%
%TF.ProjectId,QL_IC24,514c5f49-4332-4342-9e6b-696361645f70,00*%
%TF.SameCoordinates,Original*%
%TF.FileFunction,Copper,L2,Bot*%
%TF.FilePolarity,Positive*%
%FSLAX46Y46*%
G04 Gerber Fmt 4.6, Leading zero omitted, Abs format (unit mm)*
G04 Created by KiCad (PCBNEW 6.0.2-378541a8eb~116~ubuntu21.10.1) date 2022-02-13 12:51:07*
%MOMM*%
%LPD*%
G01*
G04 APERTURE LIST*
%TA.AperFunction,ComponentPad*%
%ADD10R,1.700000X1.700000*%
%TD*%
%TA.AperFunction,ComponentPad*%
%ADD11O,1.700000X1.700000*%
%TD*%
%TA.AperFunction,ComponentPad*%
%ADD12R,1.600000X1.600000*%
%TD*%
%TA.AperFunction,ComponentPad*%
%ADD13O,1.600000X1.600000*%
%TD*%
%TA.AperFunction,ViaPad*%
%ADD14C,0.800000*%
%TD*%
%TA.AperFunction,Conductor*%
%ADD15C,0.250000*%
%TD*%
G04 APERTURE END LIST*
D10*
%TO.P,J2,1,Pin_1*%
%TO.N,/DTR*%
X120650000Y-109220000D03*
D11*
%TO.P,J2,2,Pin_2*%
%TO.N,+5V*%
X123190000Y-109220000D03*
%TO.P,J2,3,Pin_3*%
%TO.N,/CTS*%
X120650000Y-111760000D03*
%TO.P,J2,4,Pin_4*%
%TO.N,/COMCTL*%
X123190000Y-111760000D03*
%TO.P,J2,5,Pin_5*%
%TO.N,unconnected-(J2-Pad5)*%
X120650000Y-114300000D03*
%TO.P,J2,6,Pin_6*%
%TO.N,GND*%
X123190000Y-114300000D03*
%TD*%
D12*
%TO.P,J1,1,Pin_1*%
%TO.N,unconnected-(J1-Pad1)*%
X114300000Y-68580000D03*
D13*
%TO.P,J1,2,Pin_2*%
%TO.N,/XTAL1*%
X114300000Y-71120000D03*
%TO.P,J1,3,Pin_3*%
%TO.N,/XTAL2*%
X114300000Y-73660000D03*
%TO.P,J1,4,Pin_4*%
%TO.N,/~{RESET}*%
X114300000Y-76200000D03*
%TO.P,J1,5,Pin_5*%
%TO.N,unconnected-(J1-Pad5)*%
X114300000Y-78740000D03*
%TO.P,J1,6,Pin_6*%
%TO.N,/~{INT}*%
X114300000Y-81280000D03*
%TO.P,J1,7,Pin_7*%
%TO.N,unconnected-(J1-Pad7)*%
X114300000Y-83820000D03*
%TO.P,J1,8,Pin_8*%
%TO.N,unconnected-(J1-Pad8)*%
X114300000Y-86360000D03*
%TO.P,J1,9,Pin_9*%
%TO.N,unconnected-(J1-Pad9)*%
X114300000Y-88900000D03*
%TO.P,J1,10,Pin_10*%
%TO.N,/COMCTL*%
X114300000Y-91440000D03*
%TO.P,J1,11,Pin_11*%
%TO.N,unconnected-(J1-Pad11)*%
X114300000Y-93980000D03*
%TO.P,J1,12,Pin_12*%
%TO.N,/KBI0*%
X114300000Y-96520000D03*
%TO.P,J1,13,Pin_13*%
%TO.N,/KBI1*%
X114300000Y-99060000D03*
%TO.P,J1,14,Pin_14*%
%TO.N,/KBI2*%
X114300000Y-101600000D03*
%TO.P,J1,15,Pin_15*%
%TO.N,/KBI3*%
X114300000Y-104140000D03*
%TO.P,J1,16,Pin_16*%
%TO.N,/KBI4*%
X114300000Y-106680000D03*
%TO.P,J1,17,Pin_17*%
%TO.N,/KBI5*%
X114300000Y-109220000D03*
%TO.P,J1,18,Pin_18*%
%TO.N,/KBI6*%
X114300000Y-111760000D03*
%TO.P,J1,19,Pin_19*%
%TO.N,/KBI7*%
X114300000Y-114300000D03*
%TO.P,J1,20,Pin_20*%
%TO.N,GND*%
X114300000Y-116840000D03*
%TO.P,J1,21,Pin_21*%
%TO.N,unconnected-(J1-Pad21)*%
X129540000Y-116840000D03*
%TO.P,J1,22,Pin_22*%
%TO.N,/SPK*%
X129540000Y-114300000D03*
%TO.P,J1,23,Pin_23*%
%TO.N,/~{IPL2{slash}0}*%
X129540000Y-111760000D03*
%TO.P,J1,24,Pin_24*%
%TO.N,/~{IPL1}*%
X129540000Y-109220000D03*
%TO.P,J1,25,Pin_25*%
%TO.N,unconnected-(J1-Pad25)*%
X129540000Y-106680000D03*
%TO.P,J1,26,Pin_26*%
%TO.N,unconnected-(J1-Pad26)*%
X129540000Y-104140000D03*
%TO.P,J1,27,Pin_27*%
%TO.N,/KBO0*%
X129540000Y-101600000D03*
%TO.P,J1,28,Pin_28*%
%TO.N,/KBO1*%
X129540000Y-99060000D03*
%TO.P,J1,29,Pin_29*%
%TO.N,/KBO2*%
X129540000Y-96520000D03*
%TO.P,J1,30,Pin_30*%
%TO.N,/KBO3*%
X129540000Y-93980000D03*
%TO.P,J1,31,Pin_31*%
%TO.N,/KBO4*%
X129540000Y-91440000D03*
%TO.P,J1,32,Pin_32*%
%TO.N,/KBO5*%
X129540000Y-88900000D03*
%TO.P,J1,33,Pin_33*%
%TO.N,/KBO6*%
X129540000Y-86360000D03*
%TO.P,J1,34,Pin_34*%
%TO.N,/KBO7*%
X129540000Y-83820000D03*
%TO.P,J1,35,Pin_35*%
%TO.N,/CTS*%
X129540000Y-81280000D03*
%TO.P,J1,36,Pin_36*%
%TO.N,/DTR*%
X129540000Y-78740000D03*
%TO.P,J1,37,Pin_37*%
%TO.N,unconnected-(J1-Pad37)*%
X129540000Y-76200000D03*
%TO.P,J1,38,Pin_38*%
%TO.N,/COMDATA*%
X129540000Y-73660000D03*
%TO.P,J1,39,Pin_39*%
%TO.N,/BAUDX4*%
X129540000Y-71120000D03*
%TO.P,J1,40,Pin_40*%
%TO.N,+5V*%
X129540000Y-68580000D03*
%TD*%
D14*
%TO.N,+5V*%
X120842200Y-94216800D03*
X120698500Y-100717700D03*
%TO.N,/BAUDX4*%
X123969800Y-95279700D03*
%TO.N,/COMDATA*%
X124697500Y-96290400D03*
%TO.N,/DTR*%
X124725000Y-97290800D03*
%TO.N,/CTS*%
X126492000Y-98202400D03*
%TO.N,/KBO1*%
X123203900Y-96114200D03*
%TO.N,/KBO0*%
X122944000Y-94190000D03*
%TO.N,/~{IPL1}*%
X123344900Y-92763400D03*
%TO.N,/~{IPL2{slash}0}*%
X122562500Y-92087000D03*
%TO.N,/SPK*%
X121874100Y-104570400D03*
%TO.N,GND*%
X120044100Y-95109800D03*
X122725200Y-77014900D03*
%TO.N,/KBI7*%
X120650700Y-92163800D03*
%TO.N,/KBI6*%
X119853700Y-88772200D03*
%TO.N,/KBI5*%
X119125000Y-91998600D03*
%TO.N,/KBI4*%
X117856000Y-89662000D03*
%TO.N,/KBI3*%
X116926800Y-90793500D03*
%TO.N,/KBI2*%
X115560500Y-98330800D03*
%TO.N,/KBI0*%
X116236000Y-102004300D03*
%TO.N,/COMCTL*%
X116385300Y-103017100D03*
%TO.N,/~{RESET}*%
X120650700Y-83394700D03*
%TD*%
D15*
%TO.N,/KBI4*%
X117856000Y-89662000D02*
X117861220Y-89667220D01*
X117861220Y-89667220D02*
X117861220Y-104642780D01*
X115824000Y-106680000D02*
X114300000Y-106680000D01*
X117861220Y-104642780D02*
X115824000Y-106680000D01*
%TO.N,+5V*%
X120842200Y-96966200D02*
X120842200Y-94216800D01*
X120698500Y-100717700D02*
X120698500Y-97109900D01*
X120698500Y-97109900D02*
X120842200Y-96966200D01*
%TO.N,/CTS*%
X126492000Y-98202400D02*
X126492000Y-84328000D01*
X126492000Y-84328000D02*
X129540000Y-81280000D01*
%TO.N,/KBO1*%
X123203900Y-96114200D02*
X123203900Y-97803900D01*
X123203900Y-97803900D02*
X124460000Y-99060000D01*
X124460000Y-99060000D02*
X129540000Y-99060000D01*
%TO.N,/KBO0*%
X129540000Y-101600000D02*
X125730000Y-101600000D01*
X125730000Y-101600000D02*
X122469900Y-98339900D01*
X122469900Y-98339900D02*
X122469900Y-94664100D01*
X122469900Y-94664100D02*
X122944000Y-94190000D01*
%TO.N,/DTR*%
X129540000Y-78740000D02*
X125753200Y-82526800D01*
X125753200Y-82526800D02*
X125753200Y-96262600D01*
X125753200Y-96262600D02*
X124725000Y-97290800D01*
%TO.N,/COMDATA*%
X129540000Y-73660000D02*
X125099300Y-78100700D01*
X125099300Y-78100700D02*
X125099300Y-95888600D01*
X125099300Y-95888600D02*
X124697500Y-96290400D01*
%TO.N,/BAUDX4*%
X129540000Y-71120000D02*
X124648900Y-76011100D01*
X124648900Y-76011100D02*
X124648900Y-94600600D01*
X124648900Y-94600600D02*
X123969800Y-95279700D01*
%TO.N,+5V*%
X129540000Y-68580000D02*
X123975900Y-74144100D01*
X123975900Y-74144100D02*
X123975900Y-89647900D01*
X123975900Y-89647900D02*
X121837200Y-91786600D01*
X121837200Y-91786600D02*
X121837200Y-92910100D01*
X121837200Y-92910100D02*
X120842200Y-93905100D01*
X120842200Y-93905100D02*
X120842200Y-94216800D01*
%TO.N,/~{RESET}*%
X114300000Y-76200000D02*
X120650700Y-82550700D01*
X120650700Y-82550700D02*
X120650700Y-83394700D01*
%TO.N,/COMCTL*%
X114300000Y-91440000D02*
X116961300Y-94101300D01*
X116961300Y-102441100D02*
X116385300Y-103017100D01*
X116961300Y-94101300D02*
X116961300Y-102441100D01*
%TO.N,/KBI2*%
X115560500Y-98330800D02*
X115560500Y-100339500D01*
X115560500Y-100339500D02*
X114300000Y-101600000D01*
%TO.N,/KBI5*%
X114300000Y-109220000D02*
X118366600Y-105153400D01*
X118366600Y-105153400D02*
X118366600Y-92757000D01*
X118366600Y-92757000D02*
X119125000Y-91998600D01*
%TO.N,/KBI6*%
X114300000Y-111760000D02*
X118816900Y-107243100D01*
X118816900Y-107243100D02*
X118816900Y-93360700D01*
X118816900Y-93360700D02*
X119853700Y-92323900D01*
X119853700Y-92323900D02*
X119853700Y-88772200D01*
%TO.N,/KBI7*%
X114300000Y-114300000D02*
X119267400Y-109332600D01*
X119267400Y-109332600D02*
X119267400Y-93547100D01*
X119267400Y-93547100D02*
X120650700Y-92163800D01*
%TO.N,/~{IPL1}*%
X122019600Y-100855600D02*
X127295000Y-106131000D01*
X129540000Y-109220000D02*
X127295000Y-106975000D01*
X127295000Y-106975000D02*
X127295000Y-106131000D01*
%TO.N,/~{IPL2{slash}0}*%
X121569300Y-102840900D02*
X126712200Y-107983800D01*
X129540000Y-111760000D02*
X126712200Y-108932200D01*
X126712200Y-108932200D02*
X126712200Y-107983800D01*
%TO.N,/SPK*%
X125770950Y-109687050D02*
X121874100Y-105790200D01*
X129540000Y-114300000D02*
X125770950Y-110530950D01*
X125770950Y-110530950D02*
X125770950Y-109687050D01*
%TO.N,GND*%
X123190000Y-114300000D02*
X121920000Y-113030000D01*
X121920000Y-113030000D02*
X121920000Y-108252900D01*
X121920000Y-108252900D02*
X119973100Y-106306000D01*
X119973100Y-106306000D02*
X119973100Y-95180800D01*
X119973100Y-95180800D02*
X120044100Y-95109800D01*
%TO.N,+5V*%
X123190000Y-109220000D02*
X123190000Y-108044700D01*
X120698500Y-105553200D02*
X120698500Y-100717700D01*
X123190000Y-108044700D02*
X120698500Y-105553200D01*
%TO.N,/~{IPL1}*%
X122019600Y-94088700D02*
X122019600Y-100855600D01*
X123344900Y-92763400D02*
X122019600Y-94088700D01*
%TO.N,/~{IPL2{slash}0}*%
X121569300Y-93902100D02*
X121569300Y-102840900D01*
X122562500Y-92908900D02*
X121569300Y-93902100D01*
X122562500Y-92087000D02*
X122562500Y-92908900D01*
%TO.N,/SPK*%
X121874100Y-105790200D02*
X121874100Y-104570400D01*
%TO.N,GND*%
X121376000Y-78364100D02*
X122725200Y-77014900D01*
X121376000Y-92657300D02*
X121376000Y-78364100D01*
X120044100Y-93989200D02*
X121376000Y-92657300D01*
X120044100Y-95109800D02*
X120044100Y-93989200D01*
%TO.N,/KBI3*%
X117411700Y-91278400D02*
X116926800Y-90793500D01*
X117411700Y-103016500D02*
X117411700Y-91278400D01*
X116288200Y-104140000D02*
X117411700Y-103016500D01*
X114300000Y-104140000D02*
X116288200Y-104140000D01*
%TO.N,/KBI0*%
X114300000Y-96520000D02*
X115425300Y-96520000D01*
X116285900Y-101954400D02*
X116236000Y-102004300D01*
X116285900Y-97380600D02*
X116285900Y-101954400D01*
X115425300Y-96520000D02*
X116285900Y-97380600D01*
%TD*%
M02*
