%TF.GenerationSoftware,KiCad,Pcbnew,6.0.2-378541a8eb~116~ubuntu21.10.1*%
%TF.CreationDate,2022-02-13T12:51:08+01:00*%
%TF.ProjectId,QL_IC24,514c5f49-4332-4342-9e6b-696361645f70,00*%
%TF.SameCoordinates,Original*%
%TF.FileFunction,Legend,Top*%
%TF.FilePolarity,Positive*%
%FSLAX46Y46*%
G04 Gerber Fmt 4.6, Leading zero omitted, Abs format (unit mm)*
G04 Created by KiCad (PCBNEW 6.0.2-378541a8eb~116~ubuntu21.10.1) date 2022-02-13 12:51:08*
%MOMM*%
%LPD*%
G01*
G04 APERTURE LIST*
%ADD10C,0.150000*%
%ADD11C,0.120000*%
G04 APERTURE END LIST*
D10*
%TO.C,JP2*%
X116656666Y-75144380D02*
X116656666Y-75858666D01*
X116609047Y-76001523D01*
X116513809Y-76096761D01*
X116370952Y-76144380D01*
X116275714Y-76144380D01*
X117132857Y-76144380D02*
X117132857Y-75144380D01*
X117513809Y-75144380D01*
X117609047Y-75192000D01*
X117656666Y-75239619D01*
X117704285Y-75334857D01*
X117704285Y-75477714D01*
X117656666Y-75572952D01*
X117609047Y-75620571D01*
X117513809Y-75668190D01*
X117132857Y-75668190D01*
X118085238Y-75239619D02*
X118132857Y-75192000D01*
X118228095Y-75144380D01*
X118466190Y-75144380D01*
X118561428Y-75192000D01*
X118609047Y-75239619D01*
X118656666Y-75334857D01*
X118656666Y-75430095D01*
X118609047Y-75572952D01*
X118037619Y-76144380D01*
X118656666Y-76144380D01*
%TO.C,JP1*%
X116514666Y-68540380D02*
X116514666Y-69254666D01*
X116467047Y-69397523D01*
X116371809Y-69492761D01*
X116228952Y-69540380D01*
X116133714Y-69540380D01*
X116990857Y-69540380D02*
X116990857Y-68540380D01*
X117371809Y-68540380D01*
X117467047Y-68588000D01*
X117514666Y-68635619D01*
X117562285Y-68730857D01*
X117562285Y-68873714D01*
X117514666Y-68968952D01*
X117467047Y-69016571D01*
X117371809Y-69064190D01*
X116990857Y-69064190D01*
X118514666Y-69540380D02*
X117943238Y-69540380D01*
X118228952Y-69540380D02*
X118228952Y-68540380D01*
X118133714Y-68683238D01*
X118038476Y-68778476D01*
X117943238Y-68826095D01*
%TO.C,J2*%
X121586666Y-106342380D02*
X121586666Y-107056666D01*
X121539047Y-107199523D01*
X121443809Y-107294761D01*
X121300952Y-107342380D01*
X121205714Y-107342380D01*
X122015238Y-106437619D02*
X122062857Y-106390000D01*
X122158095Y-106342380D01*
X122396190Y-106342380D01*
X122491428Y-106390000D01*
X122539047Y-106437619D01*
X122586666Y-106532857D01*
X122586666Y-106628095D01*
X122539047Y-106770952D01*
X121967619Y-107342380D01*
X122586666Y-107342380D01*
%TO.C,Y1*%
X124999809Y-83288190D02*
X124999809Y-83764380D01*
X124666476Y-82764380D02*
X124999809Y-83288190D01*
X125333142Y-82764380D01*
X126190285Y-83764380D02*
X125618857Y-83764380D01*
X125904571Y-83764380D02*
X125904571Y-82764380D01*
X125809333Y-82907238D01*
X125714095Y-83002476D01*
X125618857Y-83050095D01*
%TO.C,U2*%
X120142095Y-83018380D02*
X120142095Y-83827904D01*
X120189714Y-83923142D01*
X120237333Y-83970761D01*
X120332571Y-84018380D01*
X120523047Y-84018380D01*
X120618285Y-83970761D01*
X120665904Y-83923142D01*
X120713523Y-83827904D01*
X120713523Y-83018380D01*
X121142095Y-83113619D02*
X121189714Y-83066000D01*
X121284952Y-83018380D01*
X121523047Y-83018380D01*
X121618285Y-83066000D01*
X121665904Y-83113619D01*
X121713523Y-83208857D01*
X121713523Y-83304095D01*
X121665904Y-83446952D01*
X121094476Y-84018380D01*
X121713523Y-84018380D01*
%TO.C,J1*%
X125142666Y-67524380D02*
X125142666Y-68238666D01*
X125095047Y-68381523D01*
X124999809Y-68476761D01*
X124856952Y-68524380D01*
X124761714Y-68524380D01*
X126142666Y-68524380D02*
X125571238Y-68524380D01*
X125856952Y-68524380D02*
X125856952Y-67524380D01*
X125761714Y-67667238D01*
X125666476Y-67762476D01*
X125571238Y-67810095D01*
%TO.C,C1*%
X118197333Y-102879142D02*
X118149714Y-102926761D01*
X118006857Y-102974380D01*
X117911619Y-102974380D01*
X117768761Y-102926761D01*
X117673523Y-102831523D01*
X117625904Y-102736285D01*
X117578285Y-102545809D01*
X117578285Y-102402952D01*
X117625904Y-102212476D01*
X117673523Y-102117238D01*
X117768761Y-102022000D01*
X117911619Y-101974380D01*
X118006857Y-101974380D01*
X118149714Y-102022000D01*
X118197333Y-102069619D01*
X119149714Y-102974380D02*
X118578285Y-102974380D01*
X118864000Y-102974380D02*
X118864000Y-101974380D01*
X118768761Y-102117238D01*
X118673523Y-102212476D01*
X118578285Y-102260095D01*
%TO.C,U1*%
X121163095Y-87890380D02*
X121163095Y-88699904D01*
X121210714Y-88795142D01*
X121258333Y-88842761D01*
X121353571Y-88890380D01*
X121544047Y-88890380D01*
X121639285Y-88842761D01*
X121686904Y-88795142D01*
X121734523Y-88699904D01*
X121734523Y-87890380D01*
X122734523Y-88890380D02*
X122163095Y-88890380D01*
X122448809Y-88890380D02*
X122448809Y-87890380D01*
X122353571Y-88033238D01*
X122258333Y-88128476D01*
X122163095Y-88176095D01*
D11*
%TO.C,JP2*%
X116090000Y-72660000D02*
X118890000Y-72660000D01*
X118890000Y-72660000D02*
X118890000Y-74660000D01*
X118890000Y-74660000D02*
X116090000Y-74660000D01*
X116090000Y-74660000D02*
X116090000Y-72660000D01*
%TO.C,JP1*%
X115948000Y-70120000D02*
X118748000Y-70120000D01*
X118748000Y-70120000D02*
X118748000Y-72120000D01*
X118748000Y-72120000D02*
X115948000Y-72120000D01*
X115948000Y-72120000D02*
X115948000Y-70120000D01*
%TO.C,J2*%
X121920000Y-110490000D02*
X121920000Y-107890000D01*
X119320000Y-115630000D02*
X124520000Y-115630000D01*
X124520000Y-107890000D02*
X124520000Y-115630000D01*
X119320000Y-107890000D02*
X120650000Y-107890000D01*
X119320000Y-110490000D02*
X119320000Y-115630000D01*
X119320000Y-110490000D02*
X121920000Y-110490000D01*
X119320000Y-109220000D02*
X119320000Y-107890000D01*
X121920000Y-107890000D02*
X124520000Y-107890000D01*
%TO.C,Y1*%
X122926000Y-68992000D02*
X122926000Y-81592000D01*
X128026000Y-68992000D02*
X122926000Y-68992000D01*
X128026000Y-81592000D02*
X128026000Y-68992000D01*
%TO.C,U2*%
X122514000Y-80910000D02*
X122514000Y-78460000D01*
X119294000Y-79110000D02*
X119294000Y-80910000D01*
%TO.C,J1*%
X115460000Y-67250000D02*
X115460000Y-118170000D01*
X120920000Y-67250000D02*
X115460000Y-67250000D01*
X128380000Y-118170000D02*
X128380000Y-67250000D01*
X115460000Y-118170000D02*
X128380000Y-118170000D01*
X128380000Y-67250000D02*
X122920000Y-67250000D01*
X120920000Y-67250000D02*
G75*
G03*
X122920000Y-67250000I1000000J0D01*
G01*
%TO.C,R1*%
X121055224Y-74690500D02*
X120545776Y-74690500D01*
X121055224Y-73645500D02*
X120545776Y-73645500D01*
%TO.C,C1*%
X118510267Y-100582000D02*
X118217733Y-100582000D01*
X118510267Y-101602000D02*
X118217733Y-101602000D01*
%TO.C,C3*%
X121050267Y-76710000D02*
X120757733Y-76710000D01*
X121050267Y-75690000D02*
X120757733Y-75690000D01*
D10*
%TO.C,U1*%
X125550000Y-90863000D02*
X125550000Y-91188000D01*
X118300000Y-98113000D02*
X118300000Y-97788000D01*
X118300000Y-90863000D02*
X118300000Y-91088000D01*
X125550000Y-98113000D02*
X125225000Y-98113000D01*
X118300000Y-91088000D02*
X116875000Y-91088000D01*
X125550000Y-98113000D02*
X125550000Y-97788000D01*
X125550000Y-90863000D02*
X125225000Y-90863000D01*
X118300000Y-90863000D02*
X118625000Y-90863000D01*
X118300000Y-98113000D02*
X118625000Y-98113000D01*
D11*
%TO.C,R2*%
X121055224Y-72150500D02*
X120545776Y-72150500D01*
X121055224Y-71105500D02*
X120545776Y-71105500D01*
%TO.C,C2*%
X120604233Y-69086000D02*
X120896767Y-69086000D01*
X120604233Y-70106000D02*
X120896767Y-70106000D01*
%TD*%
M02*
