%TF.GenerationSoftware,KiCad,Pcbnew,6.0.2-378541a8eb~116~ubuntu21.10.1*%
%TF.CreationDate,2022-02-13T12:51:08+01:00*%
%TF.ProjectId,QL_IC24,514c5f49-4332-4342-9e6b-696361645f70,00*%
%TF.SameCoordinates,Original*%
%TF.FileFunction,Paste,Top*%
%TF.FilePolarity,Positive*%
%FSLAX46Y46*%
G04 Gerber Fmt 4.6, Leading zero omitted, Abs format (unit mm)*
G04 Created by KiCad (PCBNEW 6.0.2-378541a8eb~116~ubuntu21.10.1) date 2022-02-13 12:51:08*
%MOMM*%
%LPD*%
G01*
G04 APERTURE LIST*
G04 Aperture macros list*
%AMRoundRect*
0 Rectangle with rounded corners*
0 $1 Rounding radius*
0 $2 $3 $4 $5 $6 $7 $8 $9 X,Y pos of 4 corners*
0 Add a 4 corners polygon primitive as box body*
4,1,4,$2,$3,$4,$5,$6,$7,$8,$9,$2,$3,0*
0 Add four circle primitives for the rounded corners*
1,1,$1+$1,$2,$3*
1,1,$1+$1,$4,$5*
1,1,$1+$1,$6,$7*
1,1,$1+$1,$8,$9*
0 Add four rect primitives between the rounded corners*
20,1,$1+$1,$2,$3,$4,$5,0*
20,1,$1+$1,$4,$5,$6,$7,0*
20,1,$1+$1,$6,$7,$8,$9,0*
20,1,$1+$1,$8,$9,$2,$3,0*%
G04 Aperture macros list end*
%ADD10R,2.000000X4.500000*%
%ADD11R,0.650000X1.560000*%
%ADD12RoundRect,0.237500X0.250000X0.237500X-0.250000X0.237500X-0.250000X-0.237500X0.250000X-0.237500X0*%
%ADD13RoundRect,0.237500X0.300000X0.237500X-0.300000X0.237500X-0.300000X-0.237500X0.300000X-0.237500X0*%
%ADD14R,1.600000X0.550000*%
%ADD15R,0.550000X1.600000*%
%ADD16RoundRect,0.237500X-0.300000X-0.237500X0.300000X-0.237500X0.300000X0.237500X-0.300000X0.237500X0*%
G04 APERTURE END LIST*
D10*
%TO.C,Y1*%
X125476000Y-79942000D03*
X125476000Y-71442000D03*
%TD*%
D11*
%TO.C,U2*%
X121854000Y-78660000D03*
X120904000Y-78660000D03*
X119954000Y-78660000D03*
X119954000Y-81360000D03*
X121854000Y-81360000D03*
%TD*%
D12*
%TO.C,R1*%
X121713000Y-74168000D03*
X119888000Y-74168000D03*
%TD*%
D13*
%TO.C,C1*%
X119226500Y-101092000D03*
X117501500Y-101092000D03*
%TD*%
%TO.C,C3*%
X121766500Y-76200000D03*
X120041500Y-76200000D03*
%TD*%
D14*
%TO.C,U1*%
X117675000Y-91688000D03*
X117675000Y-92488000D03*
X117675000Y-93288000D03*
X117675000Y-94088000D03*
X117675000Y-94888000D03*
X117675000Y-95688000D03*
X117675000Y-96488000D03*
X117675000Y-97288000D03*
D15*
X119125000Y-98738000D03*
X119925000Y-98738000D03*
X120725000Y-98738000D03*
X121525000Y-98738000D03*
X122325000Y-98738000D03*
X123125000Y-98738000D03*
X123925000Y-98738000D03*
X124725000Y-98738000D03*
D14*
X126175000Y-97288000D03*
X126175000Y-96488000D03*
X126175000Y-95688000D03*
X126175000Y-94888000D03*
X126175000Y-94088000D03*
X126175000Y-93288000D03*
X126175000Y-92488000D03*
X126175000Y-91688000D03*
D15*
X124725000Y-90238000D03*
X123925000Y-90238000D03*
X123125000Y-90238000D03*
X122325000Y-90238000D03*
X121525000Y-90238000D03*
X120725000Y-90238000D03*
X119925000Y-90238000D03*
X119125000Y-90238000D03*
%TD*%
D12*
%TO.C,R2*%
X121713000Y-71628000D03*
X119888000Y-71628000D03*
%TD*%
D16*
%TO.C,C2*%
X119888000Y-69596000D03*
X121613000Y-69596000D03*
%TD*%
M02*
